<!-- Generator: Adobe Illustrator 17.1.0, SVG Export Plug-In  -->
<svg version="1.1"
	 xmlns="http://www.w3.org/2000/svg" xmlns:xlink="http://www.w3.org/1999/xlink" xmlns:a="http://ns.adobe.com/AdobeSVGViewerExtensions/3.0/"
	 x="0px" y="0px" width="649px" height="327.3px" viewBox="0 0 649 327.3" enable-background="new 0 0 649 327.3"
	 xml:space="preserve">
<defs>
</defs>
<g>
	<g>
		<g enable-background="new    ">
			<g>
				<path fill="#F38B00" d="M183.7,55.1L78,23.4l30.4,75.4l50.3,7.5L183.7,55.1"/>
				<polyline fill="#FF4338" points="108.4,98.8 42.7,89.1 78.5,163.6 134.5,163.6 108.4,98.8 				"/>
				<polyline fill="#D9272E" points="78,23.4 0,0 42.7,89.1 108.4,98.8 78,23.4 				"/>
				<path fill="#732282" d="M158.7,221l-50.3,7.5l-30.2,75.1l105.1-31.9L158.7,221"/>
				<path fill="#A90F3D" d="M134.5,163.6l-56,0l-35.7,74.6l65.6-9.7L134.5,163.6"/>
				<polyline fill="#632D4F" points="108.4,228.5 42.8,238.2 0.1,327.3 78.2,303.6 108.4,228.5 				"/>
			</g>
		</g>
	</g>
</g>
<g>
	<path fill="#231F20" d="M242.4,233.1c-9.2,0-13-5.2-13-17c0-12.3,4.5-16.9,13.4-16.9c2.4,0,4.9,0.3,9.3,1.5l-0.7,2.7
		c-4-1.3-6.4-1.6-8.5-1.6c-6.6,0-10.6,2.5-10.6,14.4c0,11.5,3.7,14.5,10.2,14.5c1.8,0,3.7-0.3,7-1.2v-12.1h-7.6v-2.4h10.3v16.5
		C248.1,232.5,244.6,233.1,242.4,233.1z"/>
	<path fill="#231F20" d="M283.9,232.6c-0.5,0.1-1,0.1-1.4,0.1c-1.9,0-2.9-0.7-4-3l-5.8-11.2h-7.1v14.1h-2.7v-33h9.4
		c6.1,0,9.9,2.8,9.9,9.3c0,4.9-2.4,7.9-6.7,9l5.4,10.5c0.7,1.4,1.2,1.7,2.2,1.7c0.4,0,0.7,0,0.9-0.1V232.6z M272,202h-6.5v14.3h6.2
		c4.8,0,7.5-2.6,7.5-7.3C279.2,204.7,277.1,202,272,202z"/>
	<path fill="#231F20" d="M302.2,233.1c-7.6,0-12.6-4.6-12.6-16.9c0-12.4,5.2-17,12.6-17c7.6,0,12.6,4.6,12.6,17
		C314.8,228.3,309.8,233.1,302.2,233.1z M302.2,201.7c-6,0-9.7,3.2-9.7,14.5c0,11.6,4.1,14.4,9.7,14.4c5.5,0,9.7-2.6,9.7-14.4
		C311.9,204.9,308.2,201.7,302.2,201.7z"/>
	<path fill="#231F20" d="M334.9,233.1c-7.2,0-11.1-2.9-11.1-11v-22.4h2.7v22.4c0,5.6,2.1,8.5,8.4,8.5c6.2,0,8.5-3,8.5-8.5v-22.4h2.7
		v22.4C346.2,230.1,341.9,233.1,334.9,233.1z"/>
	<path fill="#231F20" d="M365.5,219h-5.6v13.7h-2.7v-33h9c6.5,0,10.5,2.6,10.5,9.7C376.6,216.4,371.7,219,365.5,219z M366.1,202
		h-6.2v14.5h5.6c4.3,0,8.3-1.2,8.3-7.3C373.8,203.3,370.1,202,366.1,202z"/>
	<path fill="#231F20" d="M385.3,232.6v-33H403v2.4h-14.9v12.7h14.3v2.4h-14.3v13.1H403l0.3,2.4H385.3z"/>
	<path fill="#231F20" d="M424.7,217.4v15.2h-2.8v-33h17.6v2.4h-14.8V215h14.2v2.4H424.7z"/>
	<path fill="#231F20" d="M448.1,232.6v-33h2.8v33H448.1z"/>
	<path fill="#231F20" d="M481,232.6l-14.9-26.2c-0.7-1.2-1.2-2.4-1.6-3.4h-0.2c0.1,1.1,0.2,2.2,0.2,3.4v26.2H462v-33h3.2l14.9,26.1
		c0.6,1.1,1.1,2.2,1.5,3.2h0.2c-0.1-1-0.1-2.2-0.1-3.2v-26.1h2.6v33H481z"/>
	<path fill="#231F20" d="M513.7,232.6l-3.5-10.6h-12.5l-3.4,10.6h-2.8l10.8-33h3.6l10.8,33H513.7z M504.7,204.4
		c-0.3-1-0.5-2-0.5-2.5h-0.3c0,0.5-0.1,1.6-0.4,2.5l-5,15.3h11.2L504.7,204.4z"/>
	<path fill="#231F20" d="M542.9,232.6L528,206.5c-0.7-1.2-1.2-2.4-1.6-3.4h-0.2c0.1,1.1,0.2,2.2,0.2,3.4v26.2h-2.6v-33h3.2
		l14.9,26.1c0.6,1.1,1.1,2.2,1.5,3.2h0.2c-0.1-1-0.1-2.2-0.1-3.2v-26.1h2.6v33H542.9z"/>
	<path fill="#231F20" d="M568.4,233.1c-8.9,0-13-4.8-13-17c0-11.9,4.4-16.9,12.6-16.9c2.4,0,4.4,0.4,7.8,1.4l-0.7,2.7
		c-2.7-1-5.1-1.5-7.1-1.5c-5.8,0-9.8,2.7-9.8,14.4c0,12.2,4.2,14.5,10.2,14.5c1.6,0,3.6-0.4,7.4-1.9l0.7,2.6
		C572.7,232.8,570.4,233.1,568.4,233.1z"/>
	<path fill="#231F20" d="M583.9,232.6v-33h2.8v33H583.9z"/>
	<path fill="#231F20" d="M597.8,232.6v-33h17.7v2.4h-14.9v12.7h14.3v2.4h-14.3v13.1h14.9l0.3,2.4H597.8z"/>
	<path fill="#231F20" d="M645.8,232.6c-0.5,0.1-1,0.1-1.4,0.1c-1.9,0-2.9-0.7-4-3l-5.8-11.2h-7.1v14.1h-2.7v-33h9.4
		c6.1,0,9.9,2.8,9.9,9.3c0,4.9-2.4,7.9-6.7,9l5.4,10.5c0.7,1.4,1.2,1.7,2.2,1.7c0.4,0,0.7,0,0.9-0.1V232.6z M634,202h-6.5v14.3h6.2
		c4.8,0,7.5-2.6,7.5-7.3C641.2,204.7,639.1,202,634,202z"/>
</g>
<g>
	<path fill="#231F20" d="M229.6,163.6V89.2h45.9v14.5h-28.4v15.1h26.6v14.4h-26.6v15.9h28.9l1,14.4H229.6z"/>
	<path fill="#231F20" d="M315.9,163.6h-16.8l-16.5-53.9h15.5l8.2,29.3c0.7,2.5,1,6.7,1,8.3h1c0-1.6,0.5-5.9,1.1-8.3l7.9-29.3h14.7
		L315.9,163.6z"/>
	<path fill="#231F20" d="M361.8,164.6c-15.3,0-25.2-8.5-25.2-27.9c0-19.8,10.3-28,25.4-28c14.1,0,25.1,7.4,25.1,28
		C387.1,155.5,377.6,164.6,361.8,164.6z M361.8,120.9c-5.9,0-8.9,2.1-8.9,15.8c0,13.2,2.6,15.7,8.9,15.7c6.2,0,9-2.3,9-15.6
		C370.9,122.8,367.7,120.9,361.8,120.9z"/>
	<path fill="#231F20" d="M397.7,163.6V86.2l15.3-1.6v79H397.7z"/>
	<path fill="#231F20" d="M448.8,164.6c-15.3,0-25.2-8.5-25.2-27.9c0-19.8,10.3-28,25.4-28c14.1,0,25.1,7.4,25.1,28
		C474.1,155.5,464.5,164.6,448.8,164.6z M448.8,120.9c-5.9,0-8.9,2.1-8.9,15.8c0,13.2,2.6,15.7,8.9,15.7c6.2,0,9-2.3,9-15.6
		C457.8,122.8,454.7,120.9,448.8,120.9z"/>
	<path fill="#231F20" d="M504.7,164.6c-15.1,0-23.3-8.4-23.3-28.1c0-18.6,8.9-27.8,22.8-27.8c4.3,0,7.4,0.3,15.1,2.1l-2.5,13.5
		c-5.3-1.9-8.2-2.3-10.7-2.3c-6.1,0-8.4,3.3-8.4,14.4c0,12.3,2,14.7,8.6,14.7c2.4,0,5.1-0.6,11.5-3.7l2.5,13.5
		C511.9,164,508.2,164.6,504.7,164.6z"/>
	<path fill="#231F20" d="M537.6,103.3c-5.5,0-8.9-3-8.9-8.5c0-5.5,3.5-8.4,8.9-8.4c5.2,0,9,2.6,9,8.4
		C546.6,100,543.4,103.3,537.6,103.3z M529.9,163.6v-53.9h15.3v53.9H529.9z"/>
	<path fill="#231F20" d="M577,164.6c-10.1,0-14.2-5-14.2-15.7v-26.1h-7v-13.1h7v-11l15.4-2.5v13.5h14.5v13.1h-14.5v24.7
		c0,2,0.6,2.7,2.4,2.7c1.7,0,3.9-0.5,11.8-3.5l2.4,13.3C584.4,164.2,580.5,164.6,577,164.6z"/>
	<path fill="#231F20" d="M635.4,163.5c-4.5,17.7-11.4,23.5-22.7,23.5c-4.7,0-7.6-1.2-13.6-3l3.6-12.2c5,1.7,9.2,2.2,11,2.2
		c2.4,0,3.3-0.7,4.5-4.1l2-6.3h-5l-15.9-53.9h15.5l8.9,31.8c0.7,2.6,1.1,5.9,1.1,7.5h0.9c0-1.6,0.4-4.9,1-7.4l7.4-31.9H649
		L635.4,163.5z"/>
</g>
</svg>
